# xmcd
#
# Track frame offsets: 
#        182
#        19382
#        34007
#        50582
#        68132
#        82232
#        95882
#        107207
#        123332
#        129257
#        146732
#        155132
#        169007
#        183182
#        194582
#        203207
#        220832
#        229457
#        238907
#        254507
#        271607
#
# Disc length: 3909 seconds
#
# Revision: 5
# Processed by: cddbd v1.5.2PL0 Copyright (c) Steve Scherf et al.
# Submitted via: ExactAudioCopy v0.99pb3
#
DISCID=440f4315
DTITLE=Various Artist - The Ultimate Christmas Album
DYEAR=1997
DGENRE=Classical
TTITLE0=Luciano Pavarotti - Cantique de Noel - O Holy Night
TTITLE1=Joan Sutherland - The Twelve Days of Christmas
TTITLE2=Leontyne Price - Silent Night
TTITLE3=Kiri Te Kanawa - White Christmas
TTITLE4=The Bach Choir - Hark! The Herald Angels Sing
TTITLE5=Joan Sutherland - Good King Wenceslas
TTITLE6=Leontyne Price - God Rest Ye Merry, Gentlemen
TTITLE7=Luciano Pavarotti - Adeste Fideles
TTITLE8=Joan Sutherland - Deck the Hall
TTITLE9=Kiri Te Kanawa - Winter Wonderland
TTITLE10=St John's College Choir, Cambridge - I Saw Three Ships
TTITLE11=Choir of Trinity School - The First Noel
TTITLE12=King's College Choir, Cambridge - Shepherds, in the Field Abi
TTITLE12=ding
TTITLE13=The Bach Choir - Away in the Manger
TTITLE14=Joan Sutherland - Joy to the World
TTITLE15=Kiri Te Kanawa - Mary's Boy Child
TTITLE16=Leontyne Price - It Came Upon the Midnight Clear
TTITLE17=King's College Choir, Cambridge - Ding! Dong! Merrily on High
TTITLE18=Joan Sutherland - What Child Is This?
TTITLE19=Kiri Te Kanawa - Have Yourself a Merry Little Christmas
TTITLE20=Luciano Pavarotti - Ave Maria (Schubert)
EXTD=
EXTT0=
EXTT1=
EXTT2=
EXTT3=
EXTT4=
EXTT5=
EXTT6=
EXTT7=
EXTT8=
EXTT9=
EXTT10=
EXTT11=
EXTT12=
EXTT13=
EXTT14=
EXTT15=
EXTT16=
EXTT17=
EXTT18=
EXTT19=
EXTT20=
PLAYORDER=
